<mxfile host="app.diagrams.net" modified="2024-05-20T00:00:00.000Z" agent="5.0 (Windows)">
  <diagram id="normalFlow" name="NEF to ML QoS Interaction">
    <mxGraphModel dx="1334" dy="771" grid="1" gridSize="10" guides="1" tooltips="1" connect="1" arrows="1" fold="1" page="1" pageScale="1" pageWidth="850" pageHeight="1100" math="0" shadow="0">
      <root>
        <mxCell id="0"/>
        <mxCell id="1" parent="0"/>
        <mxCell id="step1" value="UE Mobility Simulator\nGenerates mobility events" style="rounded=1;whiteSpace=wrap;html=1;fillColor=#dae8fc;strokeColor=#6c8ebf;fontSize=13;" vertex="1" parent="1">
          <mxGeometry x="60" y="120" width="220" height="70" as="geometry"/>
        </mxCell>
        <mxCell id="step2" value="NEF Emulator\nEnriches telemetry &amp; invokes HandoverEngine" style="rounded=1;whiteSpace=wrap;html=1;fillColor=#d5e8d4;strokeColor=#82b366;fontSize=13;" vertex="1" parent="1">
          <mxGeometry x="340" y="120" width="260" height="80" as="geometry"/>
        </mxCell>
        <mxCell id="step3" value="Decision Plane\nA3 rule or ML prediction" style="rounded=1;whiteSpace=wrap;html=1;fillColor=#ffe6cc;strokeColor=#d79b00;fontSize=13;" vertex="1" parent="1">
          <mxGeometry x="660" y="120" width="220" height="70" as="geometry"/>
        </mxCell>
        <mxCell id="step4" value="NetworkStateManager\nApplies antenna &amp; emits metrics" style="rounded=1;whiteSpace=wrap;html=1;fillColor=#f8cecc;strokeColor=#b85450;fontSize=13;" vertex="1" parent="1">
          <mxGeometry x="960" y="120" width="240" height="70" as="geometry"/>
        </mxCell>
        <mxCell id="step5" value="Observability &amp; Feast Pipelines\nPersist traces, retraining triggers" style="rounded=1;whiteSpace=wrap;html=1;fillColor=#e1d5e7;strokeColor=#9673a6;fontSize=13;" vertex="1" parent="1">
          <mxGeometry x="1280" y="120" width="260" height="90" as="geometry"/>
        </mxCell>
        <mxCell id="arrow1" style="edgeStyle=orthogonalEdgeStyle;rounded=0;orthogonalLoop=1;jettySize=auto;html=1;endArrow=block;endFill=1;strokeColor=#6c8ebf;strokeWidth=2;" edge="1" source="step1" target="step2" parent="1">
          <mxGeometry relative="1" as="geometry">
            <mxPoint x="280" y="155" as="targetPoint"/>
          </mxGeometry>
        </mxCell>
        <mxCell id="arrow2" style="edgeStyle=orthogonalEdgeStyle;rounded=0;orthogonalLoop=1;jettySize=auto;html=1;endArrow=block;endFill=1;strokeColor=#82b366;strokeWidth=2;" edge="1" source="step2" target="step3" parent="1">
          <mxGeometry relative="1" as="geometry"/>
        </mxCell>
        <mxCell id="arrow3" style="edgeStyle=orthogonalEdgeStyle;rounded=0;orthogonalLoop=1;jettySize=auto;html=1;endArrow=block;endFill=1;strokeColor=#d79b00;strokeWidth=2;" edge="1" source="step3" target="step4" parent="1">
          <mxGeometry relative="1" as="geometry"/>
        </mxCell>
        <mxCell id="arrow4" style="edgeStyle=orthogonalEdgeStyle;rounded=0;orthogonalLoop=1;jettySize=auto;html=1;endArrow=block;endFill=1;strokeColor=#b85450;strokeWidth=2;" edge="1" source="step4" target="step5" parent="1">
          <mxGeometry relative="1" as="geometry"/>
        </mxCell>
        <mxCell id="noteConfig" value="Config Flags\nML_HANDOVER_ENABLED\nLIGHTGBM_TUNE" style="shape=document;whiteSpace=wrap;html=1;rounded=0;fillColor=#fff2cc;strokeColor=#d6b656;fontSize=12;" vertex="1" parent="1">
          <mxGeometry x="660" y="230" width="170" height="90" as="geometry"/>
        </mxCell>
        <mxCell id="arrowConfig" style="edgeStyle=orthogonalEdgeStyle;rounded=0;orthogonalLoop=1;jettySize=auto;html=1;endArrow=open;endFill=0;strokeColor=#d6b656;strokeWidth=1.5;dashed=1;" edge="1" source="noteConfig" target="step3" parent="1">
          <mxGeometry relative="1" as="geometry"/>
        </mxCell>
        <mxCell id="noteMetrics" value="Prometheus &amp; Grafana\nMonitor QoS metrics" style="shape=document;whiteSpace=wrap;html=1;rounded=0;fillColor=#d5e8d4;strokeColor=#82b366;fontSize=12;" vertex="1" parent="1">
          <mxGeometry x="1010" y="230" width="180" height="80" as="geometry"/>
        </mxCell>
        <mxCell id="arrowMetrics" style="edgeStyle=orthogonalEdgeStyle;rounded=0;orthogonalLoop=1;jettySize=auto;html=1;endArrow=open;endFill=0;strokeColor=#82b366;strokeWidth=1.5;dashed=1;" edge="1" source="noteMetrics" target="step4" parent="1">
          <mxGeometry relative="1" as="geometry"/>
        </mxCell>
      </root>
    </mxGraphModel>
  </diagram>
</mxfile>
